<svg xmlns="http://www.w3.org/2000/svg" width="17.588" height="20.256" viewBox="0 0 17.588 20.256">
    <path fill="none" stroke="currentcolor" stroke-linecap="round" stroke-miterlimit="10" stroke-width="2px" d="M1122.607-14.432l-5.263 5.263a3.811 3.811 0 0 1-.9.675 5 5 0 0 1-6.2-.883 5.327 5.327 0 0 1-1.226-6.033 3.854 3.854 0 0 1 .859-1.276l8.01-8.009a3.857 3.857 0 0 1 1.168-.813 3.476 3.476 0 0 1 3.983.4 3.535 3.535 0 0 1 1 1.872 3.83 3.83 0 0 1-1.133 3.376l-7.453 7.453s-1.373 1.467-2.528.312a1.68 1.68 0 0 1 0-2.371l6.085-6.086" transform="translate(-1107.531 26.982)"/>
</svg>
