<svg xmlns="http://www.w3.org/2000/svg" width="24.998" height="22.619" viewBox="0 0 24.998 22.619">
    <defs>
        <style>
            .cls-2{fill:none;stroke:currentcolor;stroke-linecap:round;stroke-miterlimit:10;stroke-width:2px}
        </style>
    </defs>
    <g id="글쓰기_아이콘" transform="translate(275.395 293.914)">
        <g id="그룹_705" transform="translate(-270.913 -291.816)">
            <path id="패스_818" fill="#fff" d="M-226.145-287.8a3.761 3.761 0 0 1-1.047 2.692q-5.82 5.83-11.658 11.642a1.955 1.955 0 0 1-.71.423c-1.822.65-3.653 1.275-5.475 1.922-.486.172-.956.3-1.365-.125a1.146 1.146 0 0 1-.113-1.308c.654-1.845 1.286-3.7 1.952-5.538a2.3 2.3 0 0 1 .528-.8q5.686-5.716 11.394-11.411a3.66 3.66 0 0 1 4.188-.864 3.675 3.675 0 0 1 2.306 3.367zm-17.96 14.258c2.2-.706 4.167-1.344 5.749-3.066 3.05-3.318 6.333-6.422 9.523-9.61a1.934 1.934 0 0 0 .71-1.736 1.766 1.766 0 0 0-1.243-1.469 1.759 1.759 0 0 0-1.912.517q-5.613 5.591-11.217 11.191a1.147 1.147 0 0 0-.293.382c-.434 1.217-.853 2.445-1.312 3.786z" transform="translate(246.662 291.486)"/>
        </g>
        <path id="선_143" d="M0 0L8.091 0" class="cls-2" transform="translate(-274.395 -289.021)"/>
        <path id="선_144" d="M0 0L0 8.091" class="cls-2" transform="translate(-270.349 -292.914)"/>
    </g>
</svg>
