<svg xmlns="http://www.w3.org/2000/svg" width="18" height="16" viewBox="0 0 20 16">
    <path fill="none" stroke="currentcolor" d="M1651.835-490.706c.032-.2.059-.391.1-.585a4.492 4.492 0 0 1 3.019-3.7 3.832 3.832 0 0 1 3.861.768 4.72 4.72 0 0 1 1.665 3.154 6.441 6.441 0 0 1-1 4.128 18.571 18.571 0 0 1-4.151 4.809c-1.072.913-2.214 1.744-3.322 2.614a.261.261 0 0 1-.363.023 30.511 30.511 0 0 1-5.948-5.264 11.3 11.3 0 0 1-2.3-3.849 5.179 5.179 0 0 1 .6-4.71 4.008 4.008 0 0 1 3.817-1.864 4.076 4.076 0 0 1 3.14 1.969 4.8 4.8 0 0 1 .8 2.4.509.509 0 0 0 .024.1z" transform="translate(-1643.094 495.219)"/>
</svg>
