<svg xmlns="http://www.w3.org/2000/svg" width="28" height="28" viewBox="0 0 28 28">
    <g stroke="#fff">
        <g fill="none" transform="translate(-39 -676) translate(39 676)">
            <rect width="28" height="28" stroke="none" rx="14"/>
            <rect width="27" height="27" x=".5" y=".5" rx="13.5"/>
        </g>
        <path fill="#fff" d="M-407.667-98.288a.964.964 0 0 1-.681-.284c-1.036-1.036-3.459-3.546-4.491-4.585a.958.958 0 0 1-.007-1.38.963.963 0 0 1 1.378.028c.734.729 2.852 2.936 3.578 3.674.11.112.158.12.258-.008 1.5-1.9 5.794-7.209 7.3-9.108.28-.353.562-.669 1.081-.605a.937.937 0 0 1 .68 1.484c-.362.5-3.541 4.395-3.928 4.88l-4.387 5.512a.987.987 0 0 1-.781.392z" transform="translate(-39 -676) translate(458.943 794.469)"/>
    </g>
</svg>
