<svg xmlns="http://www.w3.org/2000/svg" id="싫어요_아이콘" width="18" height="18" viewBox="0 0 18 18">
    <defs>
        <style>
            .cls-2{fill:none;stroke:currentcolor;stroke-miterlimit:10;stroke-width:1px;}
        </style>
    </defs>
    <path id="사각형_237" fill="rgba(255,255,255,0)" d="M0 0H18V18H0z"/>
    <path id="패스_781" d="M752.48 72.3a1.088 1.088 0 0 1 .545-1.813c-.049-.071-.1-.138-.144-.208a1.044 1.044 0 0 1 .854-1.6c1.422-.016 2.844 0 4.267 0 .605 0 1.211 0 1.816-.005a1.5 1.5 0 0 1 1.243.568.71.71 0 0 0 .582.276c.143 0 .286.007.428 0 .117-.008.145.038.144.148-.005.411 0 .823 0 1.234v4.434c0 .086 0 .137-.125.127a4.843 4.843 0 0 0-.647.008.7.7 0 0 0-.62.369 6.391 6.391 0 0 1-.86 1.126 6.682 6.682 0 0 0-.778 1 2.444 2.444 0 0 0-.319 1.3 2.662 2.662 0 0 1 0 .342.712.712 0 0 1-1.009.611 1.664 1.664 0 0 1-.917-1.113 2.025 2.025 0 0 1-.017-1.117q.192-.8.406-1.593c.041-.15.01-.185-.143-.185q-1.945.007-3.89 0a1.033 1.033 0 0 1-1.064-.771.84.84 0 0 1 .194-.927c.128-.112.11-.137-.053-.19a.816.816 0 0 1-.445-.321 1.041 1.041 0 0 1 .519-1.667.263.263 0 0 0 .033-.033z" class="cls-2" transform="translate(-749.523 -65.51)"/>
    <path id="패스_782" d="M785.223 72.946v3.408c0 .157-.042.2-.2.2-.844-.008-1.69 0-2.534 0-.544 0-.7-.158-.7-.7q0-2.079-.007-4.159v-1.73a.537.537 0 0 1 .593-.595h2.689c.129 0 .162.035.161.162v3.425z" class="cls-2" transform="translate(-768.612 -65.946)"/>
</svg>
