<svg xmlns="http://www.w3.org/2000/svg" id="좋아요_아이콘" width="18" height="18" viewBox="0 0 18 18">
    <defs>
        <style>
            .cls-2{fill:none;stroke:currentcolor;stroke-miterlimit:10}
        </style>
    </defs>
    <path id="사각형_236" fill="rgba(255,255,255,0)" d="M0 0H18V18H0z"/>
    <path id="패스_777" d="M727.8 72.553a1.081 1.081 0 0 1-.518 1.807 1.487 1.487 0 0 1 .256.5 1.067 1.067 0 0 1-1.053 1.326q-3.058.012-6.116 0a1.278 1.278 0 0 1-1.023-.44 1.1 1.1 0 0 0-1.008-.413c-.325.02-.28.043-.28-.278 0-1.821 0-3.643-.005-5.464 0-.182.055-.226.222-.213s.342 0 .514 0a.742.742 0 0 0 .69-.4 6.211 6.211 0 0 1 .818-1.071 6.724 6.724 0 0 0 .807-1.038 2.456 2.456 0 0 0 .309-1.161 2.547 2.547 0 0 1 .028-.6.7.7 0 0 1 .909-.5 1.537 1.537 0 0 1 .911.9 2.176 2.176 0 0 1 .074 1.538c-.121.469-.238.94-.366 1.407-.041.148 0 .189.148.188q1.927-.007 3.855 0a1.074 1.074 0 0 1 1.08.739 1 1 0 0 1-.162.971c-.084.108-.066.133.052.185a1.057 1.057 0 0 1 .473 1.6 1.239 1.239 0 0 1-.615.417z" class="cls-2" transform="translate(-712.099 -62.904)"/>
    <path id="패스_780" d="M707.352 79.527v-3.41c0-.152.04-.192.191-.191.885.007 1.771.016 2.656 0a.6.6 0 0 1 .617.622c-.013.9-.009 1.8-.009 2.706v3.273a.567.567 0 0 1-.268.522.5.5 0 0 1-.276.079h-2.759c-.16 0-.156-.08-.156-.192v-3.41z" class="cls-2" transform="translate(-705.312 -70.109)"/>
</svg>
