<svg xmlns="http://www.w3.org/2000/svg" id="그룹_510" width="78.943" height="59.811" viewBox="0 0 78.943 59.811">
    <path id="패스_719" d="M-605.593-1573.076c-13.2-.254-25.858-5.484-36.425-15.979a4.389 4.389 0 0 1-1.391-4.49 3.929 3.929 0 0 1 3.241-3 4.113 4.113 0 0 1 3.846 1.434 43.117 43.117 0 0 0 19.525 11.7q25.484 6.911 44.851-11.627c1.349-1.292 2.78-1.956 4.588-1.344a4.254 4.254 0 0 1 1.419 7.072 52.411 52.411 0 0 1-15.737 11.227 54.483 54.483 0 0 1-23.917 5.007z" class="cls-1" transform="translate(643.571 1632.887)"/>
    <path id="패스_720" d="M-612.243-1582.05a38.391 38.391 0 0 1-25.022-11.194 4.405 4.405 0 0 1-1.523-3.913 3.992 3.992 0 0 1 2.693-3.408 3.867 3.867 0 0 1 4.331 1.078 27 27 0 0 0 10.131 6.731c11.6 4.132 21.987 1.957 31.028-6.664a4.029 4.029 0 0 1 4.2-1.212 4.006 4.006 0 0 1 2.838 3.146 4.052 4.052 0 0 1-1.162 3.911 35.7 35.7 0 0 1-18.507 10.348c-2.955.615-6 .797-9.007 1.177z" class="cls-1" transform="translate(650.627 1626.619)"/>
    <path id="패스_721" d="M-634.078-1600.93a3.961 3.961 0 0 1 2.532-3.769 3.83 3.83 0 0 1 4.456.958 12.156 12.156 0 0 0 7.254 3.629 12.225 12.225 0 0 0 10.5-3.642 3.948 3.948 0 0 1 4.869-.744 4.081 4.081 0 0 1 1.986 4.617 5.132 5.132 0 0 1-1.2 2.163 20.333 20.333 0 0 1-29.111 0 4.263 4.263 0 0 1-1.286-3.212z" class="cls-1" transform="translate(657.704 1620.348)"/>
    <path id="패스_722" d="M-623.594-1596.963a7.04 7.04 0 0 1-6.913-7.164 7.034 7.034 0 0 1 7.01-7.064 7.012 7.012 0 0 1 6.9 7.164 7 7 0 0 1-6.997 7.064z" class="cls-1" transform="translate(663.027 1611.191)"/>
</svg>
